<mxfile host="app.diagrams.net" modified="2024-03-03T22:53:13.526Z" agent="Mozilla/5.0 (Windows NT 10.0; Win64; x64) AppleWebKit/537.36 (KHTML, like Gecko) Chrome/122.0.0.0 Safari/537.36" etag="0N9Y7BGsgZbIHS2uuQpu" version="24.0.1" type="device">
  <diagram name="Page-1" id="mOvd9c2bdHpV-QpWvmPx">
    <mxGraphModel dx="1298" dy="1220" grid="0" gridSize="10" guides="1" tooltips="1" connect="1" arrows="1" fold="1" page="0" pageScale="1" pageWidth="850" pageHeight="1100" math="0" shadow="0">
      <root>
        <mxCell id="0" />
        <mxCell id="1" parent="0" />
        <mxCell id="FhUJHd2iUx1lRDKWUPZ0-8" value="User&lt;div&gt;&lt;br&gt;&lt;/div&gt;" style="shape=umlActor;verticalLabelPosition=bottom;verticalAlign=top;html=1;" vertex="1" parent="1">
          <mxGeometry x="-62" y="-97" width="30" height="60" as="geometry" />
        </mxCell>
        <mxCell id="FhUJHd2iUx1lRDKWUPZ0-17" value="User/Mentee" style="shape=umlActor;verticalLabelPosition=bottom;verticalAlign=top;html=1;" vertex="1" parent="1">
          <mxGeometry x="-62" y="105" width="30" height="60" as="geometry" />
        </mxCell>
        <mxCell id="FhUJHd2iUx1lRDKWUPZ0-18" value="User" style="shape=umlActor;verticalLabelPosition=bottom;verticalAlign=top;html=1;" vertex="1" parent="1">
          <mxGeometry x="-62" y="323" width="30" height="60" as="geometry" />
        </mxCell>
        <mxCell id="FhUJHd2iUx1lRDKWUPZ0-19" value="User" style="shape=umlActor;verticalLabelPosition=bottom;verticalAlign=top;html=1;" vertex="1" parent="1">
          <mxGeometry x="-62" y="553" width="30" height="60" as="geometry" />
        </mxCell>
        <mxCell id="FhUJHd2iUx1lRDKWUPZ0-22" value="System" style="shape=umlActor;verticalLabelPosition=bottom;verticalAlign=top;html=1;" vertex="1" parent="1">
          <mxGeometry x="403" y="-92" width="30" height="60" as="geometry" />
        </mxCell>
        <mxCell id="FhUJHd2iUx1lRDKWUPZ0-23" value="System" style="shape=umlActor;verticalLabelPosition=bottom;verticalAlign=top;html=1;" vertex="1" parent="1">
          <mxGeometry x="403" y="97" width="30" height="60" as="geometry" />
        </mxCell>
        <mxCell id="FhUJHd2iUx1lRDKWUPZ0-25" value="System" style="shape=umlActor;verticalLabelPosition=bottom;verticalAlign=top;html=1;" vertex="1" parent="1">
          <mxGeometry x="403" y="325" width="30" height="60" as="geometry" />
        </mxCell>
        <mxCell id="FhUJHd2iUx1lRDKWUPZ0-26" value="System" style="shape=umlActor;verticalLabelPosition=bottom;verticalAlign=top;html=1;" vertex="1" parent="1">
          <mxGeometry x="403" y="553" width="30" height="60" as="geometry" />
        </mxCell>
        <mxCell id="FhUJHd2iUx1lRDKWUPZ0-30" value="Mentor" style="shape=umlActor;verticalLabelPosition=bottom;verticalAlign=top;html=1;" vertex="1" parent="1">
          <mxGeometry x="749" y="161" width="31" height="60" as="geometry" />
        </mxCell>
        <mxCell id="FhUJHd2iUx1lRDKWUPZ0-31" value="User Registration&lt;div&gt;&amp;amp;&lt;/div&gt;&lt;div&gt;Profile Creation&lt;/div&gt;" style="ellipse;whiteSpace=wrap;html=1;" vertex="1" parent="1">
          <mxGeometry x="114" y="-89" width="140" height="70" as="geometry" />
        </mxCell>
        <mxCell id="FhUJHd2iUx1lRDKWUPZ0-32" value="Mentor-Matching Process" style="ellipse;whiteSpace=wrap;html=1;" vertex="1" parent="1">
          <mxGeometry x="117" y="102" width="140" height="70" as="geometry" />
        </mxCell>
        <mxCell id="FhUJHd2iUx1lRDKWUPZ0-33" value="Accessing Educational Content" style="ellipse;whiteSpace=wrap;html=1;" vertex="1" parent="1">
          <mxGeometry x="117" y="330" width="140" height="70" as="geometry" />
        </mxCell>
        <mxCell id="FhUJHd2iUx1lRDKWUPZ0-34" value="Reporting Technical&lt;div&gt;Issues&lt;/div&gt;" style="ellipse;whiteSpace=wrap;html=1;" vertex="1" parent="1">
          <mxGeometry x="117" y="558" width="140" height="70" as="geometry" />
        </mxCell>
        <mxCell id="FhUJHd2iUx1lRDKWUPZ0-35" value="" style="endArrow=none;html=1;edgeStyle=orthogonalEdgeStyle;rounded=0;fontSize=12;startSize=8;endSize=8;curved=1;" edge="1" parent="1">
          <mxGeometry relative="1" as="geometry">
            <mxPoint x="-48" y="-57" as="sourcePoint" />
            <mxPoint x="112" y="-57" as="targetPoint" />
          </mxGeometry>
        </mxCell>
        <mxCell id="FhUJHd2iUx1lRDKWUPZ0-37" value="initiates" style="edgeLabel;resizable=0;html=1;align=right;verticalAlign=bottom;" connectable="0" vertex="1" parent="FhUJHd2iUx1lRDKWUPZ0-35">
          <mxGeometry x="1" relative="1" as="geometry">
            <mxPoint x="-57" as="offset" />
          </mxGeometry>
        </mxCell>
        <mxCell id="FhUJHd2iUx1lRDKWUPZ0-39" value="Users&lt;div&gt;Database&lt;/div&gt;" style="strokeWidth=2;html=1;shape=mxgraph.flowchart.database;whiteSpace=wrap;" vertex="1" parent="1">
          <mxGeometry x="579" y="-102" width="80" height="102" as="geometry" />
        </mxCell>
        <mxCell id="FhUJHd2iUx1lRDKWUPZ0-40" value="Mentors&lt;div&gt;Database&lt;/div&gt;" style="strokeWidth=2;html=1;shape=mxgraph.flowchart.database;whiteSpace=wrap;" vertex="1" parent="1">
          <mxGeometry x="383.25" y="194" width="69.5" height="75" as="geometry" />
        </mxCell>
        <mxCell id="FhUJHd2iUx1lRDKWUPZ0-42" value="Educational Content" style="strokeWidth=2;html=1;shape=mxgraph.flowchart.database;whiteSpace=wrap;" vertex="1" parent="1">
          <mxGeometry x="582" y="328" width="80" height="74" as="geometry" />
        </mxCell>
        <mxCell id="FhUJHd2iUx1lRDKWUPZ0-43" value="Support Ticket&#39;s&lt;div&gt;Database&lt;/div&gt;" style="strokeWidth=2;html=1;shape=mxgraph.flowchart.database;whiteSpace=wrap;" vertex="1" parent="1">
          <mxGeometry x="582" y="513" width="80" height="131" as="geometry" />
        </mxCell>
        <mxCell id="FhUJHd2iUx1lRDKWUPZ0-45" value="" style="endArrow=none;html=1;edgeStyle=orthogonalEdgeStyle;rounded=0;fontSize=12;startSize=8;endSize=8;curved=1;" edge="1" parent="1">
          <mxGeometry relative="1" as="geometry">
            <mxPoint x="-45" y="134.5" as="sourcePoint" />
            <mxPoint x="115" y="134.5" as="targetPoint" />
          </mxGeometry>
        </mxCell>
        <mxCell id="FhUJHd2iUx1lRDKWUPZ0-47" value="initiates" style="edgeLabel;resizable=0;html=1;align=right;verticalAlign=bottom;" connectable="0" vertex="1" parent="FhUJHd2iUx1lRDKWUPZ0-45">
          <mxGeometry x="1" relative="1" as="geometry">
            <mxPoint x="-56" y="-2" as="offset" />
          </mxGeometry>
        </mxCell>
        <mxCell id="FhUJHd2iUx1lRDKWUPZ0-49" value="" style="endArrow=none;html=1;edgeStyle=orthogonalEdgeStyle;rounded=0;fontSize=12;startSize=8;endSize=8;curved=1;" edge="1" parent="1">
          <mxGeometry relative="1" as="geometry">
            <mxPoint x="-46" y="361" as="sourcePoint" />
            <mxPoint x="114" y="361" as="targetPoint" />
          </mxGeometry>
        </mxCell>
        <mxCell id="FhUJHd2iUx1lRDKWUPZ0-51" value="initiates" style="edgeLabel;resizable=0;html=1;align=right;verticalAlign=bottom;" connectable="0" vertex="1" parent="FhUJHd2iUx1lRDKWUPZ0-49">
          <mxGeometry x="1" relative="1" as="geometry">
            <mxPoint x="-54" as="offset" />
          </mxGeometry>
        </mxCell>
        <mxCell id="FhUJHd2iUx1lRDKWUPZ0-52" value="" style="endArrow=none;html=1;edgeStyle=orthogonalEdgeStyle;rounded=0;fontSize=12;startSize=8;endSize=8;curved=1;" edge="1" parent="1">
          <mxGeometry relative="1" as="geometry">
            <mxPoint x="-46" y="592" as="sourcePoint" />
            <mxPoint x="114" y="592" as="targetPoint" />
          </mxGeometry>
        </mxCell>
        <mxCell id="FhUJHd2iUx1lRDKWUPZ0-54" value="initiates" style="edgeLabel;resizable=0;html=1;align=right;verticalAlign=bottom;" connectable="0" vertex="1" parent="FhUJHd2iUx1lRDKWUPZ0-52">
          <mxGeometry x="1" relative="1" as="geometry">
            <mxPoint x="-54" y="-1" as="offset" />
          </mxGeometry>
        </mxCell>
        <mxCell id="FhUJHd2iUx1lRDKWUPZ0-55" value="" style="endArrow=none;html=1;edgeStyle=orthogonalEdgeStyle;rounded=0;fontSize=12;startSize=8;endSize=8;curved=1;" edge="1" parent="1">
          <mxGeometry relative="1" as="geometry">
            <mxPoint x="257" y="-54.5" as="sourcePoint" />
            <mxPoint x="417" y="-54.5" as="targetPoint" />
          </mxGeometry>
        </mxCell>
        <mxCell id="FhUJHd2iUx1lRDKWUPZ0-57" value="notifies" style="edgeLabel;resizable=0;html=1;align=right;verticalAlign=bottom;" connectable="0" vertex="1" parent="FhUJHd2iUx1lRDKWUPZ0-55">
          <mxGeometry x="1" relative="1" as="geometry">
            <mxPoint x="-60" y="-2" as="offset" />
          </mxGeometry>
        </mxCell>
        <mxCell id="FhUJHd2iUx1lRDKWUPZ0-59" value="" style="endArrow=none;html=1;edgeStyle=orthogonalEdgeStyle;rounded=0;fontSize=12;startSize=8;endSize=8;curved=1;" edge="1" parent="1">
          <mxGeometry relative="1" as="geometry">
            <mxPoint x="257" y="136.5" as="sourcePoint" />
            <mxPoint x="417" y="136.5" as="targetPoint" />
          </mxGeometry>
        </mxCell>
        <mxCell id="FhUJHd2iUx1lRDKWUPZ0-60" value="notifies" style="edgeLabel;resizable=0;html=1;align=right;verticalAlign=bottom;" connectable="0" vertex="1" parent="FhUJHd2iUx1lRDKWUPZ0-59">
          <mxGeometry x="1" relative="1" as="geometry">
            <mxPoint x="-61" y="-3" as="offset" />
          </mxGeometry>
        </mxCell>
        <mxCell id="FhUJHd2iUx1lRDKWUPZ0-63" value="" style="endArrow=none;html=1;edgeStyle=orthogonalEdgeStyle;rounded=0;fontSize=12;startSize=8;endSize=8;curved=1;" edge="1" parent="1">
          <mxGeometry relative="1" as="geometry">
            <mxPoint x="257" y="364.5" as="sourcePoint" />
            <mxPoint x="417" y="364.5" as="targetPoint" />
          </mxGeometry>
        </mxCell>
        <mxCell id="FhUJHd2iUx1lRDKWUPZ0-64" value="notifies" style="edgeLabel;resizable=0;html=1;align=right;verticalAlign=bottom;" connectable="0" vertex="1" parent="FhUJHd2iUx1lRDKWUPZ0-63">
          <mxGeometry x="1" relative="1" as="geometry">
            <mxPoint x="-61" y="-3" as="offset" />
          </mxGeometry>
        </mxCell>
        <mxCell id="FhUJHd2iUx1lRDKWUPZ0-65" value="" style="endArrow=none;html=1;edgeStyle=orthogonalEdgeStyle;rounded=0;fontSize=12;startSize=8;endSize=8;curved=1;" edge="1" parent="1">
          <mxGeometry relative="1" as="geometry">
            <mxPoint x="257" y="592.5" as="sourcePoint" />
            <mxPoint x="417" y="592.5" as="targetPoint" />
          </mxGeometry>
        </mxCell>
        <mxCell id="FhUJHd2iUx1lRDKWUPZ0-66" value="notifies" style="edgeLabel;resizable=0;html=1;align=right;verticalAlign=bottom;" connectable="0" vertex="1" parent="FhUJHd2iUx1lRDKWUPZ0-65">
          <mxGeometry x="1" relative="1" as="geometry">
            <mxPoint x="-60" y="-2" as="offset" />
          </mxGeometry>
        </mxCell>
        <mxCell id="FhUJHd2iUx1lRDKWUPZ0-72" value="" style="endArrow=none;html=1;edgeStyle=orthogonalEdgeStyle;rounded=0;fontSize=12;startSize=8;endSize=8;curved=1;" edge="1" parent="1">
          <mxGeometry relative="1" as="geometry">
            <mxPoint x="418" y="-54.5" as="sourcePoint" />
            <mxPoint x="578" y="-54.5" as="targetPoint" />
          </mxGeometry>
        </mxCell>
        <mxCell id="FhUJHd2iUx1lRDKWUPZ0-73" value="Creates User" style="edgeLabel;resizable=0;html=1;align=left;verticalAlign=bottom;" connectable="0" vertex="1" parent="FhUJHd2iUx1lRDKWUPZ0-72">
          <mxGeometry x="-1" relative="1" as="geometry">
            <mxPoint x="2" as="offset" />
          </mxGeometry>
        </mxCell>
        <mxCell id="FhUJHd2iUx1lRDKWUPZ0-74" value="Stores" style="edgeLabel;resizable=0;html=1;align=right;verticalAlign=bottom;" connectable="0" vertex="1" parent="FhUJHd2iUx1lRDKWUPZ0-72">
          <mxGeometry x="1" relative="1" as="geometry" />
        </mxCell>
        <mxCell id="FhUJHd2iUx1lRDKWUPZ0-75" value="" style="endArrow=none;html=1;edgeStyle=orthogonalEdgeStyle;rounded=0;fontSize=12;startSize=8;endSize=8;curved=1;" edge="1" parent="1">
          <mxGeometry relative="1" as="geometry">
            <mxPoint x="419" y="364.5" as="sourcePoint" />
            <mxPoint x="579" y="364.5" as="targetPoint" />
          </mxGeometry>
        </mxCell>
        <mxCell id="FhUJHd2iUx1lRDKWUPZ0-76" value="access" style="edgeLabel;resizable=0;html=1;align=left;verticalAlign=bottom;" connectable="0" vertex="1" parent="FhUJHd2iUx1lRDKWUPZ0-75">
          <mxGeometry x="-1" relative="1" as="geometry" />
        </mxCell>
        <mxCell id="FhUJHd2iUx1lRDKWUPZ0-77" value="provides" style="edgeLabel;resizable=0;html=1;align=right;verticalAlign=bottom;" connectable="0" vertex="1" parent="FhUJHd2iUx1lRDKWUPZ0-75">
          <mxGeometry x="1" relative="1" as="geometry" />
        </mxCell>
        <mxCell id="FhUJHd2iUx1lRDKWUPZ0-78" value="" style="endArrow=none;html=1;edgeStyle=orthogonalEdgeStyle;rounded=0;fontSize=12;startSize=8;endSize=8;curved=1;" edge="1" parent="1">
          <mxGeometry relative="1" as="geometry">
            <mxPoint x="417" y="126.5" as="sourcePoint" />
            <mxPoint x="577" y="126.5" as="targetPoint" />
          </mxGeometry>
        </mxCell>
        <mxCell id="FhUJHd2iUx1lRDKWUPZ0-80" value="accesses" style="edgeLabel;resizable=0;html=1;align=right;verticalAlign=bottom;" connectable="0" vertex="1" parent="FhUJHd2iUx1lRDKWUPZ0-78">
          <mxGeometry x="1" relative="1" as="geometry" />
        </mxCell>
        <mxCell id="FhUJHd2iUx1lRDKWUPZ0-81" value="" style="endArrow=none;html=1;edgeStyle=orthogonalEdgeStyle;rounded=0;fontSize=12;startSize=8;endSize=8;curved=1;" edge="1" parent="1">
          <mxGeometry relative="1" as="geometry">
            <mxPoint x="419" y="592.5" as="sourcePoint" />
            <mxPoint x="579" y="592.5" as="targetPoint" />
          </mxGeometry>
        </mxCell>
        <mxCell id="FhUJHd2iUx1lRDKWUPZ0-83" value="Creates" style="edgeLabel;resizable=0;html=1;align=right;verticalAlign=bottom;" connectable="0" vertex="1" parent="FhUJHd2iUx1lRDKWUPZ0-81">
          <mxGeometry x="1" relative="1" as="geometry">
            <mxPoint x="-59" y="-1" as="offset" />
          </mxGeometry>
        </mxCell>
        <mxCell id="FhUJHd2iUx1lRDKWUPZ0-88" value="Users&lt;div&gt;Database&lt;/div&gt;" style="strokeWidth=2;html=1;shape=mxgraph.flowchart.database;whiteSpace=wrap;" vertex="1" parent="1">
          <mxGeometry x="579" y="61" width="65" height="82" as="geometry" />
        </mxCell>
        <mxCell id="FhUJHd2iUx1lRDKWUPZ0-89" value="" style="endArrow=none;html=1;edgeStyle=orthogonalEdgeStyle;rounded=0;fontSize=12;startSize=8;endSize=8;curved=1;entryX=1.004;entryY=0.613;entryDx=0;entryDy=0;entryPerimeter=0;exitX=1;exitY=1;exitDx=0;exitDy=0;exitPerimeter=0;" edge="1" parent="1" source="FhUJHd2iUx1lRDKWUPZ0-23" target="FhUJHd2iUx1lRDKWUPZ0-40">
          <mxGeometry relative="1" as="geometry">
            <mxPoint x="452.75" y="155" as="sourcePoint" />
            <mxPoint x="486.7165" y="250.0250000000001" as="targetPoint" />
            <Array as="points">
              <mxPoint x="453" y="157" />
              <mxPoint x="453" y="188" />
              <mxPoint x="540" y="188" />
              <mxPoint x="540" y="208" />
              <mxPoint x="542" y="208" />
              <mxPoint x="542" y="243" />
              <mxPoint x="487" y="243" />
              <mxPoint x="487" y="240" />
            </Array>
          </mxGeometry>
        </mxCell>
        <mxCell id="FhUJHd2iUx1lRDKWUPZ0-91" value="&lt;font style=&quot;font-size: 13px;&quot;&gt;matches&lt;/font&gt;" style="edgeLabel;resizable=0;html=1;align=right;verticalAlign=bottom;rotation=-15;" connectable="0" vertex="1" parent="FhUJHd2iUx1lRDKWUPZ0-89">
          <mxGeometry x="1" relative="1" as="geometry">
            <mxPoint x="44" y="-4" as="offset" />
          </mxGeometry>
        </mxCell>
        <mxCell id="FhUJHd2iUx1lRDKWUPZ0-95" value="" style="endArrow=none;html=1;edgeStyle=orthogonalEdgeStyle;rounded=0;fontSize=12;startSize=8;endSize=8;curved=1;entryX=0.548;entryY=0.65;entryDx=0;entryDy=0;entryPerimeter=0;" edge="1" parent="1" target="FhUJHd2iUx1lRDKWUPZ0-30">
          <mxGeometry relative="1" as="geometry">
            <mxPoint x="421" y="142" as="sourcePoint" />
            <mxPoint x="726" y="189" as="targetPoint" />
            <Array as="points">
              <mxPoint x="455" y="142" />
              <mxPoint x="455" y="154" />
              <mxPoint x="610" y="154" />
              <mxPoint x="610" y="201" />
              <mxPoint x="765" y="201" />
            </Array>
          </mxGeometry>
        </mxCell>
        <mxCell id="FhUJHd2iUx1lRDKWUPZ0-97" value="reviews &amp;amp; confirms" style="edgeLabel;resizable=0;html=1;align=right;verticalAlign=bottom;" connectable="0" vertex="1" parent="FhUJHd2iUx1lRDKWUPZ0-95">
          <mxGeometry x="1" relative="1" as="geometry">
            <mxPoint x="-19" as="offset" />
          </mxGeometry>
        </mxCell>
      </root>
    </mxGraphModel>
  </diagram>
</mxfile>
